<svg preserveAspectRatio="none" width="100%" height="100%" overflow="visible" style="display: block;" viewBox="0 0 13.6667 12.5" fill="none" xmlns="http://www.w3.org/2000/svg">
<g id="Group">
<path id="Vector" d="M3.70433 9.9623C4.56326 10.8212 5.69346 11.3558 6.90233 11.4748C8.1112 11.5938 9.32394 11.2899 10.3339 10.6149C11.3438 9.93996 12.0884 8.93567 12.4408 7.7732C12.7933 6.61074 12.7317 5.36203 12.2666 4.23988C11.8015 3.11773 10.9617 2.19158 9.89025 1.61925C8.81881 1.04693 7.58206 0.863854 6.39077 1.10122C5.19947 1.33859 4.12734 1.98171 3.35709 2.92099C2.58684 3.86027 2.16614 5.03758 2.16667 6.2523V7.41663" stroke="var(--stroke-0, #28502D)" stroke-width="2" stroke-linecap="round" stroke-linejoin="round"/>
<path id="Vector_2" d="M1 6.24996L2.16667 7.41663L3.33333 6.24996M6.83333 3.91663V6.8333H9.75" stroke="var(--stroke-0, #28502D)" stroke-width="2" stroke-linecap="round" stroke-linejoin="round"/>
</g>
</svg>
