<svg preserveAspectRatio="none" width="100%" height="100%" overflow="visible" style="display: block;" viewBox="0 0 14.9976 11.9995" fill="none" xmlns="http://www.w3.org/2000/svg">
<path id="Vector" d="M14.9744 0.492675C14.9672 0.370353 14.9154 0.254913 14.8288 0.168271C14.7421 0.0816293 14.6267 0.0298183 14.5044 0.0226749C11.2694 -0.164825 8.67187 0.818925 7.55562 2.66142C6.81812 3.87955 6.81937 5.35892 7.54562 6.77017C7.13218 7.26223 6.83006 7.83789 6.66 8.45767L5.64312 7.43705C6.13187 6.41642 6.11312 5.35268 5.58062 4.46893C4.75562 3.10705 2.85125 2.37705 0.486871 2.5158C0.364549 2.52294 0.249109 2.57475 0.162467 2.6614C0.0758251 2.74804 0.0240142 2.86348 0.0168708 2.9858C-0.122504 5.35017 0.608121 7.25455 1.97 8.07955C2.41939 8.35418 2.93583 8.49952 3.4625 8.49955C3.97368 8.49321 4.4769 8.37211 4.935 8.14517L6.4975 9.70767V11.4995C6.4975 11.6322 6.55017 11.7593 6.64394 11.8531C6.73771 11.9469 6.86489 11.9995 6.9975 11.9995C7.1301 11.9995 7.25728 11.9469 7.35105 11.8531C7.44482 11.7593 7.4975 11.6322 7.4975 11.4995V9.65642C7.49522 8.86098 7.76591 8.08883 8.26437 7.46892C8.90746 7.80503 9.62068 7.98489 10.3462 7.99393C11.0477 7.99619 11.7362 7.80455 12.3356 7.44018C14.1781 6.32518 15.1644 3.72767 14.9744 0.492675ZM2.48562 7.22455C1.52687 6.64393 0.984371 5.26955 0.997496 3.49955C2.7675 3.48455 4.14187 4.02892 4.7225 4.98767C5.02562 5.48767 5.075 6.0708 4.87625 6.67142L3.35062 5.1458C3.25609 5.05599 3.13021 5.00666 2.99983 5.00833C2.86945 5.01 2.74488 5.06253 2.65268 5.15474C2.56048 5.24694 2.50795 5.37151 2.50628 5.50189C2.50461 5.63227 2.55394 5.75814 2.64375 5.85267L4.16937 7.3783C3.56875 7.57705 2.98625 7.52768 2.48562 7.22455ZM11.8175 6.5858C10.98 7.09268 9.99562 7.13143 8.99562 6.7108L12.3512 3.35455C12.4411 3.26002 12.4904 3.13414 12.4887 3.00376C12.487 2.87338 12.4345 2.74881 12.3423 2.65661C12.2501 2.56441 12.1255 2.51187 11.9952 2.51021C11.8648 2.50854 11.7389 2.55787 11.6444 2.64768L8.28812 5.99955C7.86562 4.99955 7.90375 4.01455 8.41312 3.17767C9.28437 1.74017 11.3506 0.938925 13.9962 1.0008C14.0562 3.6458 13.2562 5.71455 11.8175 6.5858Z" fill="var(--fill-0, white)"/>
</svg>
