<svg preserveAspectRatio="none" width="100%" height="100%" overflow="visible" style="display: block;" viewBox="0 0 12 14.5" fill="none" xmlns="http://www.w3.org/2000/svg">
<g id="Group">
<path id="Vector" d="M2.25 11.625V6C2.25 5.00544 2.64509 4.05161 3.34835 3.34835C4.05161 2.64509 5.00544 2.25 6 2.25C6.99456 2.25 7.94839 2.64509 8.65165 3.34835C9.35491 4.05161 9.75 5.00544 9.75 6V11.625M2.25 11.625H9.75M2.25 11.625H1M9.75 11.625H11M5.375 13.5H6.625" stroke="var(--stroke-0, #28502D)" stroke-width="2" stroke-linecap="round" stroke-linejoin="round"/>
<path id="Vector_2" d="M6 2.25C6.34518 2.25 6.625 1.97018 6.625 1.625C6.625 1.27982 6.34518 1 6 1C5.65482 1 5.375 1.27982 5.375 1.625C5.375 1.97018 5.65482 2.25 6 2.25Z" stroke="var(--stroke-0, #28502D)" stroke-width="2"/>
</g>
</svg>
