<svg preserveAspectRatio="none" width="100%" height="100%" overflow="visible" style="display: block;" viewBox="0 0 173 173" fill="none" xmlns="http://www.w3.org/2000/svg">
<g id="Group 3">
<path id="Ellipse 2 (Stroke)" d="M148 86.5C148 52.5345 120.466 25 86.5 25C52.5345 25 25 52.5345 25 86.5C25 120.466 52.5345 148 86.5 148V173C38.7274 173 0 134.273 0 86.5C0 38.7274 38.7274 0 86.5 0C134.273 0 173 38.7274 173 86.5C173 134.273 134.273 173 86.5 173V148C120.466 148 148 120.466 148 86.5Z" fill="var(--fill-0, #D9D9D9)"/>
<path id="Union" d="M86.5 0C134.273 0 173 38.7274 173 86.5C173 134.273 134.273 173 86.5 173C78.2579 173 70.2856 171.845 62.7344 169.692C57.1617 168.434 53 163.453 53 157.5C53 150.596 58.5964 145 65.5 145C66.8949 145 68.2364 145.229 69.4893 145.65L69.5 145.62C74.8992 147.17 80.6026 148 86.5 148C120.466 148 148 120.466 148 86.5C148 52.5345 120.466 25 86.5 25C79.5964 25 74 19.4036 74 12.5C74 5.59644 79.5964 0 86.5 0Z" fill="url(#paint0_linear_113_217)"/>
</g>
<defs>
<linearGradient id="paint0_linear_113_217" x1="113" y1="0" x2="113" y2="173" gradientUnits="userSpaceOnUse">
<stop stop-color="#28502D"/>
<stop offset="1" stop-color="#438347"/>
</linearGradient>
</defs>
</svg>
