<svg preserveAspectRatio="none" width="100%" height="100%" overflow="visible" style="display: block;" viewBox="0 0 15.8333 17.7617" fill="none" xmlns="http://www.w3.org/2000/svg">
<g id="Group">
<g id="Vector">
<path d="M8.40167 17.3L8.41083 17.2983C8.41806 17.2994 8.42278 17.3044 8.425 17.3133L8.43917 17.6692L8.43583 17.6833L8.42583 17.6967L8.33917 17.7583L8.32917 17.7617L8.31667 17.7583L8.23 17.6967L8.22167 17.6858L8.2175 17.6692L8.23167 17.3125L8.235 17.3042C8.23944 17.2986 8.24611 17.2972 8.255 17.3L8.31417 17.3292L8.32583 17.3325L8.3425 17.3292L8.40167 17.3Z" fill="var(--fill-0, #28502D)"/>
<path d="M8.62083 17.2058L8.63167 17.2042C8.64 17.2064 8.64556 17.2125 8.64833 17.2225L8.67667 17.7342L8.67333 17.7458C8.66778 17.7531 8.65972 17.7553 8.64917 17.7525L8.48167 17.675L8.475 17.6692L8.47083 17.6592L8.45583 17.3008L8.45833 17.2917L8.46667 17.2833L8.62083 17.2058Z" fill="var(--fill-0, #28502D)"/>
<path d="M8.02358 17.2038C8.02777 17.2029 8.03216 17.2036 8.03583 17.2058L8.18917 17.2825L8.1975 17.2908L8.2 17.3008L8.18583 17.6592L8.1825 17.6683L8.17417 17.675L8.00667 17.7525L7.99417 17.7542C7.98528 17.7508 7.98056 17.7442 7.98 17.7342L8.00833 17.2225L8.01333 17.2108C8.01572 17.2073 8.01939 17.2047 8.02358 17.2038Z" fill="var(--fill-0, #28502D)"/>
</g>
<path id="Vector_2" d="M6.66667 14.5833C6.66667 14.9149 6.79836 15.2328 7.03278 15.4672C7.2672 15.7016 7.58515 15.8333 7.91667 15.8333C8.24819 15.8333 8.56613 15.7016 8.80055 15.4672C9.03497 15.2328 9.16667 14.9149 9.16667 14.5833V9.16667H14.5833C14.9149 9.16667 15.2328 9.03497 15.4672 8.80055C15.7016 8.56613 15.8333 8.24819 15.8333 7.91667C15.8333 7.58515 15.7016 7.2672 15.4672 7.03278C15.2328 6.79836 14.9149 6.66667 14.5833 6.66667H9.16667V1.25C9.16667 0.918479 9.03497 0.600537 8.80055 0.366117C8.56613 0.131696 8.24819 0 7.91667 0C7.58515 0 7.2672 0.131696 7.03278 0.366117C6.79836 0.600537 6.66667 0.918479 6.66667 1.25V6.66667H1.25C0.918479 6.66667 0.600537 6.79836 0.366117 7.03278C0.131696 7.2672 0 7.58515 0 7.91667C0 8.24819 0.131696 8.56613 0.366117 8.80055C0.600537 9.03497 0.918479 9.16667 1.25 9.16667H6.66667V14.5833Z" fill="var(--fill-0, #28502D)"/>
</g>
</svg>
