<svg preserveAspectRatio="none" width="100%" height="100%" overflow="visible" style="display: block;" viewBox="0 0 9.625 9.625" fill="none" xmlns="http://www.w3.org/2000/svg">
<g id="Group">
<path id="Vector" d="M9.625 5.5H7.5625C7.01549 5.5 6.49089 5.7173 6.10409 6.10409C5.7173 6.49089 5.5 7.01549 5.5 7.5625V9.625H1.375C1.01033 9.625 0.660591 9.48013 0.402728 9.22227C0.144866 8.96441 0 8.61467 0 8.25V4.125H9.625V5.5Z" fill="var(--fill-0, #3A6C3D)"/>
<path id="Vector_2" d="M6.1875 9.625V7.5625C6.1875 7.19783 6.33237 6.84809 6.59023 6.59023C6.84809 6.33237 7.19783 6.1875 7.5625 6.1875H9.625L6.1875 9.625ZM7.5625 0C7.74484 0 7.9197 0.0724328 8.04864 0.201364C8.17757 0.330295 8.25 0.505164 8.25 0.6875V1.375C8.61467 1.375 8.96441 1.51987 9.22227 1.77773C9.48013 2.03559 9.625 2.38533 9.625 2.75V3.4375H0V2.75C0 2.38533 0.144866 2.03559 0.402728 1.77773C0.660591 1.51987 1.01033 1.375 1.375 1.375V0.6875C1.375 0.505164 1.44743 0.330295 1.57636 0.201364C1.7053 0.0724328 1.88016 0 2.0625 0C2.24484 0 2.4197 0.0724328 2.54864 0.201364C2.67757 0.330295 2.75 0.505164 2.75 0.6875V1.375H6.875V0.6875C6.875 0.505164 6.94743 0.330295 7.07636 0.201364C7.2053 0.0724328 7.38016 0 7.5625 0Z" fill="var(--fill-0, #3A6C3D)"/>
</g>
</svg>
