<svg preserveAspectRatio="none" width="100%" height="100%" overflow="visible" style="display: block;" viewBox="0 0 43.8876 46.2647" fill="none" xmlns="http://www.w3.org/2000/svg">
<path id="Vector" d="M20.7696 0.00014828C20.6609 0.00115438 20.5514 0.00638614 20.4426 0.0126239C19.5729 0.06313 18.7161 0.294331 18.1789 0.613264C17.642 0.931895 17.4728 1.18875 17.4937 1.57841V1.60356L17.5722 4.43633L23.6057 4.30755L23.5176 1.10374C23.5027 0.800498 23.3359 0.585596 22.7661 0.339806C22.3391 0.155288 21.7354 0.0335507 21.0935 0.00638611C20.9856 0.00142246 20.8776 -0.000590495 20.7696 0.00014828ZM43.4007 5.75683L0 6.69995L0.138338 12.9377L15.6981 13.3466L0.792201 14.3246L0.499729 24.2658L0.641186 24.2973L1.4521 24.4828L1.36729 25.3098L0.672475 32.098L43.8876 31.164L43.3251 24.857L29.202 24.4891L43.2088 23.568L42.3157 13.5667L28.3436 13.202L43.5388 12.2023L43.4005 5.75683H43.4007ZM24.4197 33.4653L18.3957 33.5943L18.7543 46.2647H24.7752L24.4201 33.4654L24.4197 33.4653Z" fill="url(#paint0_linear_103_127)"/>
<defs>
<linearGradient id="paint0_linear_103_127" x1="21.9438" y1="-9.57926e-05" x2="21.9438" y2="46.2647" gradientUnits="userSpaceOnUse">
<stop stop-color="#F9C64B"/>
<stop offset="1" stop-color="#735817"/>
</linearGradient>
</defs>
</svg>
