<svg preserveAspectRatio="none" width="100%" height="100%" overflow="visible" style="display: block;" viewBox="0 0 26.6667 28" fill="none" xmlns="http://www.w3.org/2000/svg">
<path id="Vector" fill-rule="evenodd" clip-rule="evenodd" d="M13.3333 5.33331C17.7516 5.33331 21.3333 8.91506 21.3333 13.3333C21.3333 16.2944 19.7246 18.8798 17.3333 20.2631V25.3333L16 26.6667H14.6667C14.6667 27.4031 14.0697 28 13.3333 28C12.5969 28 12 27.4031 12 26.6667H10.6667L9.33331 25.3333V20.2631C6.94206 18.8798 5.33331 16.2944 5.33331 13.3333C5.33331 8.91506 8.91506 5.33331 13.3333 5.33331ZM14.6667 21.2227C14.2261 21.2964 13.7801 21.3334 13.3333 21.3333C12.879 21.3333 12.4336 21.2954 11.9999 21.2227L12 24H14.6667L14.6667 21.2227ZM6.02656 19.2259L7.44075 20.6401L4.61237 23.4685L3.19812 22.0543L6.02656 19.2259ZM20.6401 19.2259L23.4685 22.0543L22.0543 23.4685L19.2259 20.6401L20.6401 19.2259ZM26.6667 12.3334V14.3334H22.6667V12.3334H26.6667ZM4 12.3334V14.3334H0V12.3334H4ZM22.0544 3.19812L23.4685 4.61237L20.6401 7.44075L19.2259 6.02656L22.0544 3.19812ZM4.61237 3.19812L7.44075 6.02656L6.02656 7.44075L3.19812 4.61237L4.61237 3.19812ZM14.3333 0V4H12.3333V0H14.3333Z" fill="var(--fill-0, #FCC858)" fill-opacity="0.66"/>
</svg>
