<svg preserveAspectRatio="none" width="100%" height="100%" overflow="visible" style="display: block;" viewBox="0 0 24.6257 24.9284" fill="none" xmlns="http://www.w3.org/2000/svg">
<path id="Vector" d="M5.00593 16.2686H18.5101C21.9598 16.2686 24.6257 13.657 24.6257 10.3164C24.6257 6.93179 21.84 4.39679 18.1508 4.42929C16.7579 1.62175 14.2011 0 11.1865 0C7.17136 0 3.78718 3.16643 3.47146 7.22568C1.36036 7.80232 0 9.57636 0 11.72C0 14.4184 2.02429 16.2686 5.00593 16.2686ZM13.9504 21.4806L15.3651 19.0325C15.561 18.6949 15.4524 18.3142 15.126 18.129C14.7996 17.9335 14.4295 18.0421 14.2336 18.3797L12.7971 20.8497C12.623 21.1654 12.7103 21.5461 13.0478 21.742C13.1242 21.7842 13.2082 21.8109 13.2949 21.8206C13.3817 21.8303 13.4695 21.8228 13.5533 21.7985C13.6371 21.7742 13.7154 21.7336 13.7835 21.6791C13.8516 21.6246 13.9083 21.5571 13.9504 21.4806ZM16.4752 24.5928L19.6853 19.0213C19.8812 18.6949 19.7828 18.3249 19.4675 18.129C19.1629 17.9442 18.7711 18.0421 18.5645 18.3685L15.3762 23.9181C15.191 24.2557 15.2783 24.6364 15.6046 24.8323C15.9204 25.0064 16.2899 24.9085 16.4752 24.5928ZM5.28868 21.4913L6.70336 19.0431C6.89929 18.7061 6.80132 18.3249 6.47493 18.1401C6.13739 17.9442 5.76736 18.0528 5.57143 18.3904L4.14607 20.8604C3.96129 21.1761 4.05925 21.5568 4.38564 21.742C4.46101 21.7864 4.54455 21.8151 4.63126 21.8265C4.71798 21.8379 4.8061 21.8317 4.89038 21.8084C4.97465 21.785 5.05335 21.7448 5.12178 21.6904C5.19021 21.6359 5.24697 21.5682 5.28868 21.4913ZM7.81346 24.6039L11.0342 19.0325C11.2195 18.7061 11.1215 18.336 10.8165 18.1401C10.7418 18.0951 10.6589 18.0656 10.5726 18.0533C10.4863 18.041 10.3984 18.0461 10.3142 18.0685C10.2299 18.0908 10.151 18.1299 10.0822 18.1834C10.0133 18.2368 9.95595 18.3036 9.91343 18.3797L6.7145 23.9293C6.52925 24.2664 6.62722 24.6475 6.95361 24.843C7.26932 25.0171 7.63936 24.9191 7.81346 24.6039Z" fill="var(--fill-0, #2F86C6)"/>
</svg>
