<svg preserveAspectRatio="none" width="100%" height="100%" overflow="visible" style="display: block;" viewBox="0 0 25.8462 25.8462" fill="none" xmlns="http://www.w3.org/2000/svg">
<g id="document-text">
<path id="Vector" opacity="0.4" d="M22.0769 10.9738H18.9646C16.4123 10.9738 14.3338 8.89538 14.3338 6.34308V3.23077C14.3338 2.63846 13.8492 2.15385 13.2569 2.15385H8.69077C5.37385 2.15385 2.69231 4.30769 2.69231 8.15231V17.6938C2.69231 21.5385 5.37385 23.6923 8.69077 23.6923H17.1554C20.4723 23.6923 23.1538 21.5385 23.1538 17.6938V12.0508C23.1538 11.4585 22.6692 10.9738 22.0769 10.9738Z" fill="var(--fill-0, #578A3E)"/>
<path id="Vector_2" d="M17.0154 2.38C16.5738 1.93846 15.8092 2.24 15.8092 2.85385V6.61231C15.8092 8.18462 17.1446 9.48769 18.7708 9.48769C19.7938 9.49846 21.2154 9.49846 22.4323 9.49846C23.0462 9.49846 23.3692 8.77692 22.9385 8.34615C21.3877 6.78462 18.6092 3.97385 17.0154 2.38Z" fill="var(--fill-0, #578A3E)" fill-opacity="0.4"/>
<path id="Vector_3" d="M14.5385 14.8077H8.07692C7.63538 14.8077 7.26923 14.4415 7.26923 14C7.26923 13.5585 7.63538 13.1923 8.07692 13.1923H14.5385C14.98 13.1923 15.3462 13.5585 15.3462 14C15.3462 14.4415 14.98 14.8077 14.5385 14.8077Z" fill="var(--fill-0, #578A3E)"/>
<path id="Vector_4" d="M12.3846 19.1154H8.07692C7.63538 19.1154 7.26923 18.7492 7.26923 18.3077C7.26923 17.8662 7.63538 17.5 8.07692 17.5H12.3846C12.8262 17.5 13.1923 17.8662 13.1923 18.3077C13.1923 18.7492 12.8262 19.1154 12.3846 19.1154Z" fill="var(--fill-0, #578A3E)"/>
<g id="Vector_5" opacity="0">
</g>
</g>
</svg>
