<svg preserveAspectRatio="none" width="100%" height="100%" overflow="visible" style="display: block;" viewBox="0 0 25.8462 25.8462" fill="none" xmlns="http://www.w3.org/2000/svg">
<g id="home">
<path id="Vector" d="M22.4323 8.62615L15.3785 2.98308C14 1.88462 11.8462 1.87385 10.4785 2.97231L3.42462 8.62615C2.41231 9.43385 1.79846 11.0492 2.01385 12.32L3.37077 20.44C3.68308 22.26 5.37385 23.6923 7.21538 23.6923H18.6308C20.4508 23.6923 22.1738 22.2277 22.4862 20.4292L23.8431 12.3092C24.0369 11.0492 23.4231 9.43385 22.4323 8.62615ZM13.7308 19.3846C13.7308 19.8262 13.3646 20.1923 12.9231 20.1923C12.4815 20.1923 12.1154 19.8262 12.1154 19.3846V16.1538C12.1154 15.7123 12.4815 15.3462 12.9231 15.3462C13.3646 15.3462 13.7308 15.7123 13.7308 16.1538V19.3846Z" fill="var(--fill-0, #578A3E)"/>
<g id="Vector_2" opacity="0">
</g>
</g>
</svg>
