<svg preserveAspectRatio="none" width="100%" height="100%" overflow="visible" style="display: block;" viewBox="0 0 117.459 46.3673" fill="none" xmlns="http://www.w3.org/2000/svg">
<g id="gambar">
<path id="Vector" d="M6.68739 42.5737C6.77335 43.0597 6.66629 42.9443 7.03601 43.2372C7.37733 43.2644 7.49235 43.2914 7.82319 43.2125C9.28029 44.1763 11.495 44.5987 11.9351 45.5614C11.4525 45.7523 11.2613 45.8119 10.7146 45.8307C9.3961 45.8762 8.07272 45.8795 6.75371 45.8497C5.41216 45.8194 4.06835 45.7886 2.73528 45.6542C2.73488 45.6542 2.36888 45.3967 2.34116 45.3771C3.39578 44.1274 6.28517 44.5504 6.68739 42.5737Z" fill="var(--fill-0, #F7D79B)"/>
<g id="Group 6">
<path id="Vector_2" d="M97.057 17.9824C96.965 17.6414 96.2204 16.8806 95.9257 16.5852C92.2581 12.9099 92.374 7.40199 95.9816 3.65604C97.9812 1.62072 100.855 0.324699 103.984 0.0472262C107.279 -0.214912 110.564 0.621508 113.128 2.37513C115.19 3.78717 117.197 6.45167 117.351 8.68023C117.461 10.2741 117.582 13.0671 116.345 14.3109C115.583 16.6351 114.964 17.3507 112.358 18.4025C110.969 19.5756 109.168 20.1034 107.443 20.8477C107.396 20.9789 107.356 21.0931 107.322 21.1902C107.418 23.6569 107.447 26.1251 107.411 28.593C107.794 28.1626 108.572 27.2275 109.039 26.9537C108.948 26.4622 109.003 25.9595 109.199 25.49C110.186 23.0669 114.703 22.1828 117.223 22.9279C117.502 23.1885 117.424 23.0593 117.459 23.4781C117.221 27.2948 113.767 28.898 109.561 27.8153C108.884 28.4032 107.924 29.0894 107.584 29.8747C107.203 30.7582 107.303 40.204 107.327 41.6629C107.327 41.702 107.329 41.7412 107.332 41.7802C107.305 42.2458 107.398 42.3533 107.119 42.6572C106.772 42.6973 106.637 42.7143 106.289 42.6976C106.274 40.4362 106.306 38.1179 106.208 35.8633C105.448 35.0086 104.675 34.1624 103.889 33.3249C104.067 33.1814 104.32 32.9133 104.487 32.7469C104.972 33.0843 105.732 33.9325 106.155 34.3787C106.399 31.6959 106.214 28.6014 106.246 25.8702C106.247 24.6237 105.855 24.0828 104.765 23.2384C103.792 22.4839 102.64 23.22 101.434 23.196C100.105 23.1694 99.3291 22.9964 98.3278 22.2611C97.2744 21.4875 95.9314 18.9262 97.057 17.9824Z" fill="var(--fill-0, #F7D79B)"/>
<path id="Vector_3" d="M108.884 15.0267C110.908 12.8771 113.133 13.0776 116.038 13.119L116.345 14.311C115.583 16.6351 114.964 17.3507 112.358 18.4025C110.969 19.5756 109.168 20.1035 107.443 20.8478C107.396 20.979 107.356 21.0931 107.322 21.1903C107.418 23.657 107.447 26.1252 107.411 28.593C107.794 28.1626 108.572 27.2275 109.039 26.9537C108.948 26.4622 109.003 25.9595 109.199 25.49C110.186 23.067 114.703 22.1829 117.223 22.928C117.502 23.1886 117.424 23.0593 117.459 23.4782C117.221 27.2949 113.767 28.8981 109.561 27.8154C108.884 28.4032 107.924 29.0895 107.584 29.8748C107.203 30.7582 107.303 40.2041 107.327 41.6629C107.327 41.702 107.329 41.7413 107.332 41.7803C107.305 42.2459 107.398 42.3533 107.119 42.6572C106.772 42.6974 106.637 42.7144 106.289 42.6977C106.274 40.4362 106.306 38.118 106.208 35.8633C105.448 35.0087 104.675 34.1625 103.889 33.325C104.067 33.1815 104.32 32.9134 104.487 32.747C104.972 33.0844 105.732 33.9326 106.155 34.3787C106.399 31.696 106.214 28.6015 106.246 25.8703C106.247 24.6237 105.855 24.0829 104.765 23.2385C103.792 22.4839 102.64 23.22 101.434 23.196C100.105 23.1695 99.3291 22.9964 98.3278 22.2611C97.2744 21.4876 95.9314 18.9262 97.0569 17.9825C100.042 17.8366 101.945 17.9604 104.314 19.7032C104.263 18.4121 104.567 16.1277 103.634 15.2703C103.742 15.0136 103.821 14.9584 104.03 14.7428C104.162 14.6974 105.376 13.978 105.656 13.8293C106.95 13.8209 107.852 13.5927 108.501 14.6235L108.884 15.0267Z" fill="var(--fill-0, #529B45)"/>
<path id="Vector_4" d="M105.656 13.8291C106.95 13.8208 107.852 13.5925 108.501 14.6233C108.276 14.9163 107.696 15.1269 107.313 15.2105L106.882 14.9712C106.567 15.037 106.296 15.119 106.258 15.4381C106.022 17.415 106.204 19.7633 106.197 21.7355C106.092 21.2703 106.183 20.9922 105.512 20.9677C105.086 21.1596 104.964 21.2219 104.805 21.6097C104.771 20.8705 104.568 20.4027 104.314 19.7031C104.263 18.4119 104.567 16.1276 103.634 15.2702C103.742 15.0135 103.821 14.9582 104.03 14.7427C104.162 14.6972 105.376 13.9778 105.656 13.8291Z" fill="var(--fill-0, #FCF1E2)"/>
<path id="Vector_5" d="M109.039 26.9537C108.948 26.4622 109.003 25.9595 109.199 25.49C110.186 23.0669 114.703 22.1828 117.223 22.9279C117.502 23.1885 117.424 23.0593 117.459 23.4781C114.868 24.4543 112.264 24.9966 109.959 26.4582C109.692 26.6274 109.334 26.8202 109.039 26.9537Z" fill="var(--fill-0, #5AA649)"/>
<path id="Vector_6" d="M109.283 18.1915C110.437 18.4396 111.182 18.4078 112.358 18.4023C110.969 19.5754 109.168 20.1033 107.443 20.8476C107.396 20.9788 107.356 21.0929 107.322 21.1901C107.32 21.1321 107.319 21.0739 107.32 21.0158C107.332 19.8545 108.355 18.9498 109.283 18.1915Z" fill="var(--fill-0, #F7D79B)"/>
<path id="Vector_7" d="M108.501 14.6233L108.884 15.0266C108.194 16.1858 108.308 17.6567 107.723 18.1813C107.46 17.6718 107.731 16.1671 107.313 15.2105C107.696 15.1269 108.276 14.9163 108.501 14.6233Z" fill="var(--fill-0, #FBF8F4)"/>
<path id="Vector_8" d="M104.805 21.6099C104.964 21.222 105.086 21.1598 105.512 20.9679C106.183 20.9923 106.092 21.2705 106.197 21.7356C106.165 22.2067 106.254 22.2559 105.977 22.5821C105.481 22.4943 105.296 22.2447 105.01 21.8778C104.94 21.7891 104.872 21.6997 104.805 21.6099Z" fill="var(--fill-0, #FBF8F4)"/>
<path id="Vector_9" d="M103.634 15.2703C103.114 14.9233 102.771 14.7687 102.632 14.2482L102.82 14.1342C103.284 14.1456 103.66 14.4822 104.03 14.7428C103.821 14.9584 103.742 15.0136 103.634 15.2703Z" fill="var(--fill-0, #FBF8F4)"/>
<g id="Vector_10">
</g>
<path id="Vector_11" d="M96.063 28.8663C97.0337 28.7642 99.1801 28.7706 100.099 28.9955C102.291 29.2284 104.434 30.2335 104.425 32.3074L104.487 32.7468C104.32 32.9131 104.067 33.1813 103.889 33.3247C101.434 35.5783 96.5234 33.2937 96.1667 30.5879C96.0774 29.9109 96.0424 29.5511 96.063 28.8663Z" fill="var(--fill-0, #438F3C)"/>
<path id="Vector_12" d="M100.099 28.9956C102.291 29.2285 104.434 30.2336 104.425 32.3075C103.645 32.3667 101.931 31.4439 101.2 31.0892C101.249 30.3994 100.783 30.0322 100.284 29.5055L100.514 29.371C100.303 29.2366 100.292 29.2252 100.136 29.0405L100.099 28.9956Z" fill="var(--fill-0, #4D9740)"/>
<path id="Vector_13" d="M101.2 31.0891C100.228 30.8269 97.6799 30.251 97.243 29.5832L97.4537 29.448C98.6199 29.2755 99.1536 29.3209 100.284 29.5055C100.783 30.0321 101.249 30.3994 101.2 31.0891Z" fill="var(--fill-0, #DCE8CC)"/>
<path id="Vector_14" d="M107.332 41.7802C107.446 42.4979 107.326 42.4326 108.02 42.9077C109.811 44.1332 112.559 44.1912 113.841 45.9389L113.369 46.2323C109.721 46.2914 105.93 46.2476 102.272 46.2435C101.462 46.2194 100.684 46.2902 100.02 45.9575C100.602 44.9468 105.054 42.8606 106.289 42.6976C106.637 42.7143 106.772 42.6972 107.119 42.6571C107.398 42.3532 107.305 42.2458 107.332 41.7802Z" fill="var(--fill-0, #F7D79B)"/>
</g>
<path id="Vector_15" d="M49.9454 37.0615C50.2599 36.5443 50.1247 35.7124 50.3094 35.1431C50.4302 34.7699 51.46 33.6116 51.4191 33.4185C51.0647 31.7449 51.767 30.9705 53.6851 30.2693C54.68 29.9056 55.8528 29.8754 57.1469 29.9537C57.1693 31.3002 57.0786 32.1921 55.8681 33.2298C55.7321 33.3458 55.5938 33.4598 55.4529 33.5717C54.2653 33.8295 53.8396 33.8799 52.5725 33.8726C52.0947 34.3935 51.5858 34.9739 51.097 35.48C51.0178 37.5828 50.9689 41.0026 51.0865 43.0825C50.768 43.1418 50.7283 43.1349 50.4158 43.0537C49.9888 42.4806 50.305 39.6066 50.1333 38.5185C50.1058 37.9065 49.7872 38.0155 49.5447 37.441L49.9454 37.0615Z" fill="var(--fill-0, #5AA649)"/>
<path id="Vector_16" d="M3.34762 38.4431C1.78028 38.3562 -1.88807 34.9731 2.54558 35.1424C6.55725 35.2956 5.46164 37.4969 6.85467 38.1884C7.28978 38.0768 7.25025 37.9965 7.59555 37.6427L8.11318 37.9869C7.62925 39.0834 7.69332 42.0276 7.82319 43.2125C7.49235 43.2914 7.37733 43.2644 7.03601 43.2372C6.66629 42.9443 6.77335 43.0597 6.68739 42.5737C6.79669 41.7724 6.73289 40.3883 6.70012 39.5813C6.19417 38.8766 6.0497 38.5206 5.1564 38.2586C4.37306 38.412 4.14887 38.4454 3.34762 38.4431Z" fill="var(--fill-0, #5AA649)"/>
<path id="Vector_17" d="M3.34762 38.4432C3.36022 38.2953 3.3967 38.2318 3.4483 38.0909C3.68006 38.0749 3.77451 38.0547 4.00095 38.0078C3.90849 37.9449 3.82571 37.9232 3.70951 37.9038C3.48903 37.6291 3.32016 37.1778 3.45082 36.8557L3.80688 36.8176C4.54365 37.0294 5.12628 37.6058 5.15639 38.2587C4.37305 38.4121 4.14886 38.4455 3.34762 38.4432Z" fill="var(--fill-0, #4D9740)"/>
<path id="Vector_18" d="M50.1333 38.5186C50.305 39.6067 49.9887 42.4806 50.4158 43.0537C50.7283 43.1349 50.768 43.1418 51.0865 43.0826C51.4992 43.1438 52.0129 43.3122 52.3476 43.5211C53.5138 44.2489 55.4482 44.4753 56.1246 45.5891C55.5809 45.8625 54.6249 45.8423 53.9577 45.8743C51.51 45.8915 49.0627 45.9222 46.6155 45.9664C45.9865 45.8161 45.9013 45.7935 45.4052 45.4409C46.0654 44.5361 48.5754 43.9317 50.0937 43.0618C50.1305 41.5514 50.082 40.0422 50.1333 38.5186Z" fill="var(--fill-0, #F7D79B)"/>
<path id="Vector_19" d="M43.0105 33.8591C43.2356 33.5462 43.4294 33.2683 43.8998 33.2214C46.4712 32.9651 48.7009 33.7633 49.264 35.8816C49.274 35.9193 49.2833 35.9572 49.2916 35.9952C49.4699 36.3198 49.7011 36.7845 49.9454 37.0616L49.5447 37.4411C49.4248 37.3248 49.2827 37.187 49.1182 37.0277C47.5205 36.6855 45.7752 37.4469 44.2807 36.3267C43.5238 35.7596 43.0948 34.7083 43.0105 33.8591Z" fill="var(--fill-0, #4D9740)"/>
<path id="Vector_20" d="M43.0105 33.8591C43.2356 33.5462 43.4294 33.2683 43.8998 33.2214C46.4712 32.9651 48.7009 33.7633 49.264 35.8816C49.274 35.9193 49.2833 35.9572 49.2916 35.9952C47.4833 35.6672 45.2331 34.3785 43.0105 33.8591Z" fill="var(--fill-0, #69B852)"/>
<path id="Vector_21" d="M8.21042 35.455C9.07746 34.5566 10.1583 34.0582 11.4962 33.8888C12.3867 33.7761 13.4323 33.6878 13.5414 34.5695C13.3367 36.092 12.4361 37.0468 10.6278 37.3182C9.29833 37.4662 9.05862 37.2411 8.11318 37.987L7.59555 37.6427L8.07205 36.8481C8.1413 36.5136 8.17805 35.8182 8.21042 35.455Z" fill="var(--fill-0, #69B852)"/>
<path id="Vector_22" d="M9.38136 36.6701C10.1548 35.6983 12.1507 34.7302 13.5413 34.5695C13.3367 36.092 12.4361 37.0468 10.6278 37.3181C10.4217 37.305 10.2158 37.2898 10.0102 37.2723C9.53206 37.23 9.37885 37.2252 9.11526 36.9512L9.38136 36.6701Z" fill="var(--fill-0, #5AA649)"/>
<path id="Vector_23" d="M69.768 28.7486C70.811 28.1202 72.1766 27.2867 73.1559 26.5941C73.5186 27.3981 74.2851 28.8877 74.1789 29.684L74.0802 29.7829C73.1138 29.5094 73.5062 28.9298 72.8546 28.5131L72.5007 28.3613C71.7318 28.3377 70.5977 28.6427 69.768 28.7486Z" fill="var(--fill-0, #91C08C)"/>
<path id="Vector_24" d="M72.5007 28.3613L72.8546 28.5131C72.4547 29.1825 72.2903 30.1797 71.6061 30.654C71.4811 30.0663 72.1961 28.9103 72.5007 28.3613Z" fill="var(--fill-0, #78A578)"/>
<path id="Vector_25" d="M18.9208 43.4449C19.7174 43.3974 20.7726 43.1715 21.1479 43.8225C20.3866 43.8705 19.1668 44.1261 18.9208 43.4449Z" fill="var(--fill-0, #78A578)"/>
<path id="Vector_26" d="M25.5903 43.4417C26.3635 43.3968 27.392 43.1678 27.7053 43.8245C26.9314 43.875 25.8313 44.1315 25.5903 43.4417Z" fill="var(--fill-0, #91C08C)"/>
<path id="Vector_27" d="M29.0976 43.451C29.9202 43.409 30.8549 43.18 31.2463 43.838C30.4541 43.8661 29.3958 44.1072 29.0976 43.451Z" fill="var(--fill-0, #78A578)"/>
<path id="Vector_28" d="M35.6828 43.4576C36.4785 43.3998 37.3819 43.1614 37.7261 43.8249C37.0505 43.866 35.8473 44.0961 35.6828 43.4576Z" fill="var(--fill-0, #78A578)"/>
<path id="Vector_29" d="M15.6217 43.4631C16.4083 43.3641 17.2139 43.2081 17.693 43.7719C16.9236 43.9359 16.0888 44.0463 15.6217 43.4631Z" fill="var(--fill-0, #78A578)"/>
<path id="Vector_30" d="M70.9639 31.4768C71.1515 31.6095 71.0927 31.564 71.1696 31.7972C70.9851 32.248 70.5121 32.695 70.1535 33.0797L69.9508 32.8171C69.9643 32.4197 70.6383 31.8288 70.9639 31.4768Z" fill="var(--fill-0, #78A578)"/>
<path id="Vector_31" d="M22.2106 43.4586C23.0384 43.3727 23.7992 43.1888 24.2445 43.812C23.389 43.8749 22.7152 44.0907 22.2106 43.4586Z" fill="var(--fill-0, #78A578)"/>
<path id="Vector_32" d="M32.3531 43.4526C33.1414 43.418 34.0429 43.2015 34.4154 43.8295C33.725 43.8536 32.5348 44.0665 32.3531 43.4526Z" fill="var(--fill-0, #78A578)"/>
<path id="Vector_33" d="M38.9304 43.4533C39.7301 43.4104 40.5416 43.1987 40.9253 43.8331C40.3753 43.854 39.5263 43.9466 39.0528 43.7564L38.9304 43.4533Z" fill="var(--fill-0, #91C08C)"/>
<path id="Vector_34" d="M69.0845 33.8092C69.2679 33.8411 69.3065 33.8851 69.4556 33.9808C69.4162 34.4519 68.831 34.8567 68.4116 35.2288C68.229 35.1509 68.3076 35.2093 68.225 35.005C68.5073 34.5708 68.7643 34.2255 69.0845 33.8092Z" fill="var(--fill-0, #78A578)"/>
<path id="Vector_35" d="M62.7356 39.1867C62.9488 39.2283 62.8506 39.2045 63.041 39.3661L62.9561 39.5219C62.5889 39.7864 62.1506 39.8903 61.6946 40.0321L61.48 39.8259C61.71 39.5485 62.3411 39.3456 62.7356 39.1867Z" fill="var(--fill-0, #78A578)"/>
<path id="Vector_36" d="M59.8953 40.3195C60.1573 40.2832 60.0274 40.2747 60.292 40.3745L60.2736 40.5119C59.9047 40.8633 59.7082 40.8828 59.1634 41.0145L58.9833 41.08C58.8587 41.014 58.8843 41.0417 58.7949 40.9481C59.1232 40.6119 59.433 40.515 59.8953 40.3195Z" fill="var(--fill-0, #78A578)"/>
<path id="Vector_37" d="M67.299 35.9388C67.5179 36.1457 67.4688 36.0376 67.4535 36.3452C67.2081 36.6961 66.7541 36.8846 66.3354 37.1007C66.1865 36.9384 66.2408 37.0333 66.2325 36.7883C66.5952 36.5116 66.9507 36.2284 67.299 35.9388Z" fill="var(--fill-0, #4D9740)"/>
<path id="Vector_38" d="M65.1452 37.7046L65.3707 37.7904L65.4243 37.9681C65.078 38.2659 64.7876 38.4041 64.373 38.6278L64.1351 38.5812L64.0818 38.4257C64.2809 38.1414 64.8002 37.8955 65.1452 37.7046Z" fill="var(--fill-0, #4D9740)"/>
</g>
</svg>
