<svg preserveAspectRatio="none" width="100%" height="100%" overflow="visible" style="display: block;" viewBox="0 0 28.5454 22.6559" fill="none" xmlns="http://www.w3.org/2000/svg">
<path id="Vector" d="M28.5025 1.31942C28.4828 0.987237 28.342 0.673808 28.1067 0.438512C27.8714 0.203215 27.558 0.0623968 27.2258 0.0427353C21.1913 -0.311835 16.3282 1.55617 14.2166 5.04297C12.8414 7.30859 12.7938 10.0466 14.0512 12.6668C13.4391 13.4475 12.9683 14.3293 12.6601 15.2723L11.226 13.8381C12.0405 11.9384 11.9544 9.9741 10.9541 8.32246C9.37042 5.70453 5.76354 4.30438 1.30706 4.56152C0.974699 4.58121 0.66112 4.72219 0.425798 4.95772C0.190475 5.19325 0.0497745 5.50696 0.0303806 5.83934C-0.227901 10.2958 1.17226 13.9027 3.78792 15.4864C4.67504 16.0271 5.69433 16.3121 6.73323 16.3099C7.61899 16.3028 8.49398 16.1151 9.30472 15.7582L12.233 18.6911V21.2966C12.233 21.6571 12.3763 22.0029 12.6312 22.2578C12.8861 22.5127 13.2319 22.6559 13.5924 22.6559C13.9529 22.6559 14.2987 22.5127 14.5536 22.2578C14.8086 22.0029 14.9518 21.6571 14.9518 21.2966V17.9559C14.949 16.7408 15.3247 15.5549 16.0268 14.5631C17.1641 15.1019 18.4048 15.3875 19.6632 15.4003C21.0171 15.4034 22.3456 15.0325 23.5023 14.3286C26.9879 12.2171 28.8582 7.35391 28.5025 1.31942ZM5.19601 13.1607C3.70183 12.2545 2.79671 10.05 2.72308 7.25535C5.51772 7.32899 7.72331 8.2341 8.62843 9.72828C8.98239 10.304 9.12758 10.984 9.03964 11.6541L7.75616 10.3661C7.50079 10.1107 7.15443 9.96721 6.79327 9.96721C6.43212 9.96721 6.08575 10.1107 5.83038 10.3661C5.57501 10.6214 5.43154 10.9678 5.43154 11.3289C5.43154 11.6901 5.57501 12.0365 5.83038 12.2918L7.11499 13.5764C6.44671 13.659 5.77021 13.5124 5.19601 13.1607ZM22.0942 12.0075C20.8866 12.7382 19.4887 12.8764 18.0376 12.4334L22.2573 8.21484C22.5127 7.95947 22.6561 7.61311 22.6561 7.25195C22.6561 6.8908 22.5127 6.54444 22.2573 6.28906C22.0019 6.03369 21.6556 5.89022 21.2944 5.89022C20.9333 5.89022 20.5869 6.03369 20.3315 6.28906L16.1118 10.5077C15.6734 9.06219 15.8116 7.65863 16.5377 6.45672C17.9764 4.07781 21.3692 2.71844 25.7498 2.71844H25.8268C25.8426 7.13641 24.4833 10.5552 22.0942 12.0075Z" fill="var(--fill-0, #FBF9F3)"/>
</svg>
