<svg preserveAspectRatio="none" width="100%" height="100%" overflow="visible" style="display: block;" viewBox="0 0 25.8462 25.8462" fill="none" xmlns="http://www.w3.org/2000/svg">
<g id="profile-2user">
<path id="Vector" opacity="0.4" d="M9.69231 2.15385C6.87077 2.15385 4.57692 4.44769 4.57692 7.26923C4.57692 10.0369 6.74154 12.2769 9.56308 12.3738C9.64923 12.3631 9.73538 12.3631 9.8 12.3738C9.82154 12.3738 9.83231 12.3738 9.85385 12.3738C9.86461 12.3738 9.86461 12.3738 9.87538 12.3738C12.6323 12.2769 14.7969 10.0369 14.8077 7.26923C14.8077 4.44769 12.5138 2.15385 9.69231 2.15385Z" fill="var(--fill-0, #578A3E)"/>
<path id="Vector_2" opacity="0.4" d="M15.1631 15.2385C12.1585 13.2354 7.25846 13.2354 4.23231 15.2385C2.86462 16.1538 2.11077 17.3923 2.11077 18.7169C2.11077 20.0415 2.86462 21.2692 4.22154 22.1738C5.72923 23.1862 7.71077 23.6923 9.69231 23.6923C11.6738 23.6923 13.6554 23.1862 15.1631 22.1738C16.52 21.2585 17.2738 20.0308 17.2738 18.6954C17.2631 17.3708 16.52 16.1431 15.1631 15.2385Z" fill="var(--fill-0, #578A3E)"/>
<g id="Vector_3" opacity="0">
</g>
</g>
</svg>
