<svg preserveAspectRatio="none" width="100%" height="100%" overflow="visible" style="display: block;" viewBox="0 0 36.1142 13.2725" fill="none" xmlns="http://www.w3.org/2000/svg">
<g id="turun">
<path id="Vector" d="M6.22659 3.72652C8.33852 2.57356 8.55431 0.316295 11.0107 0C12.0475 0.614218 12.3781 1.39329 13.1959 2.16392C13.9218 2.84815 14.8273 3.2121 15.6304 3.92811C16.7239 4.90282 17.6538 6.27972 18.6541 7.22066C19.5869 6.91827 20.2097 6.68986 21.2087 6.70426C22.086 6.71667 22.7456 7.31302 23.5246 7.00516C25.1745 6.35321 27.2817 3.98969 28.9678 3.54677C29.5438 4.25086 30.142 4.92764 30.7417 5.60989C31.5042 6.47684 32.2041 7.47588 33.2574 8.01711C34.1079 8.45406 35.1598 8.35177 36.0902 8.41881C36.1124 8.84335 36.1225 9.15716 36.1059 9.5812C36.1291 10.8166 36.0686 12.0381 36.0603 13.2725C33.3493 13.1717 30.1659 13.2561 27.4178 13.2561L11.3595 13.2541L2.95128 13.2089C2.34416 13.2104 0.491232 13.1384 0.0059158 13.2C0.00715715 10.3508 -0.0498455 7.52206 0.166099 4.67987C0.189039 4.37798 0.069671 2.41914 0.129901 2.30443C0.349172 2.24783 0.569189 2.1942 0.789999 2.14405L0.790048 2.07404L0.0764241 2.18924C0.01247 1.78109 -0.00679586 1.57403 0.00919267 1.15694C1.0121 1.01344 2.21874 0.891781 3.02819 1.57551C4.08448 2.46779 4.88569 3.22551 6.22659 3.72652Z" fill="var(--fill-0, #FAE7E2)"/>
<path id="Vector_2" d="M6.22669 3.72652C8.33861 2.57356 8.55441 0.316295 11.0108 0C12.0476 0.614218 12.3781 1.39329 13.196 2.16392C13.9219 2.84815 14.8274 3.2121 15.6305 3.92811C16.7239 4.90282 17.6539 6.27972 18.6542 7.22066C19.587 6.91827 20.2098 6.68986 21.2088 6.70426C22.0861 6.71667 22.7457 7.31302 23.5247 7.00516C25.1746 6.35321 27.2818 3.98969 28.9679 3.54677C29.5439 4.25086 30.1421 4.92764 30.7418 5.60989C31.5043 6.47684 32.2042 7.47588 33.2575 8.01711C34.108 8.45406 35.1599 8.35177 36.0903 8.41881C36.1125 8.84335 36.1225 9.15716 36.106 9.5812C35.1887 9.5534 33.3272 9.33492 32.586 8.83689C31.1426 7.86616 29.8751 6.16104 28.9129 4.73499C28.4674 5.03241 27.9537 5.24394 27.4617 5.59201C25.9783 6.6407 24.6427 7.79217 22.8532 8.28672C22.1715 8.03548 21.5415 7.54241 20.7596 7.62087C20.036 7.69336 19.3296 8.05037 18.6995 8.39249C17.5148 7.40934 16.7278 6.41776 15.6752 5.3363C14.7879 4.42416 13.5264 3.69276 12.5479 2.88787C12.1352 2.54824 11.8051 2.07156 11.4309 1.68922C11.1099 1.35853 10.8413 1.12913 10.486 0.830707C9.9182 1.28852 9.62489 1.60382 9.15904 2.11624C8.54934 2.76671 7.29449 4.75683 6.38697 4.80301C5.17581 4.86458 2.61561 2.54575 1.69071 1.80988C1.37382 1.91068 1.1327 1.94991 0.79014 2.07404L0.0765161 2.18924C0.012562 1.78109 -0.00670383 1.57403 0.00928469 1.15694C1.01219 1.01344 2.21883 0.891781 3.02829 1.57551C4.08457 2.46779 4.88578 3.22551 6.22669 3.72652Z" fill="var(--fill-0, #E8483C)"/>
</g>
</svg>
