<svg preserveAspectRatio="none" width="100%" height="100%" overflow="visible" style="display: block;" viewBox="0 0 36.1142 15.2725" fill="none" xmlns="http://www.w3.org/2000/svg">
<g id="naik">
<path id="Vector" d="M33.5 1.00004C30.5 3.49994 28 6.99995 25.5 5.49995C24.4632 6.11417 24 2.49995 21 4.49999C20.274 5.18422 21.2869 5.2121 20.4838 5.9281C19.3904 6.90281 18.4604 8.27971 17.4601 9.22065C16.5273 8.91826 15.9045 8.68985 14.9055 8.70425C14.0282 8.71666 14.2791 7.91773 13.5 7.60988C11.8501 6.95792 12.1861 5.4429 10.5 4.99999C9.92405 5.70408 6.99998 9.22065 5.37254 7.60988C4.61 8.47683 3.55331 8.16302 2.5 8.70425C1.64948 9.1412 0.954407 10.3518 0.024044 10.4188C0.00184879 10.8433 -0.00822631 11.1571 0.00830841 11.5812C-0.0148799 12.8166 0.0456438 14.0381 0.053936 15.2725C2.76493 15.1717 5.94833 15.2561 8.69642 15.2561L24.7547 15.2541L33.1629 15.2089C33.7701 15.2104 35.623 15.1384 36.1083 15.2C36.1071 12.3508 36.1641 9.52205 35.9481 6.67986C35.9252 6.37797 36.0445 4.41913 35.9843 4.30443C35.765 4.24782 35.545 4.1942 35.3242 4.14405L35.3242 4.07403L35.5 3.49995C35.564 3.0918 35.4292 3.15693 35.3242 2.99995C35.2191 2.84298 36.8241 2.49995 35.3242 0.499951C34.2679 1.39223 34.8409 0.499036 33.5 1.00004Z" fill="var(--fill-0, #41A949)" fill-opacity="0.28"/>
<path id="Vector_2" d="M33.7366 0.0332728C34.371 -0.012132 35.3994 -0.0280851 35.997 0.0982139C36.0117 0.542739 35.9703 0.835687 35.9152 1.28056C35.4626 1.15494 33.9114 0.943284 33.5642 1.11715C31.5915 2.10511 30.0705 5.55828 28.1187 6.61653C26.8521 7.30325 24.9809 5.58493 24.1103 4.86984C23.7827 4.60075 23.0738 4.28596 22.6341 4.1146C21.4407 4.55824 21.1623 5.19313 20.4099 6.13234C19.7201 6.99317 18.8985 8.18219 18.0594 8.89354C17.4937 9.37317 16.7468 9.47158 16.0287 9.38554C14.3247 9.18124 13.0132 7.57445 11.8618 6.43898C11.4435 6.02641 10.8329 5.50909 10.4881 5.06275C10.0891 5.71727 9.22367 6.49082 8.71409 7.09792C8.21825 7.68862 7.6228 8.60506 7.01812 9.02544C6.47364 8.93075 5.46531 8.4042 4.80053 8.21326C3.97461 8.55701 2.53429 9.5028 1.80438 10.0561C1.4149 10.3107 0.69437 11.0588 0.2246 10.9963C0.0459357 10.8774 0.0443057 10.8297 0.0126519 10.6197C-0.0401374 10.2691 0.0718608 10.104 0.356301 9.90487C1.30567 9.24009 2.21706 8.53752 3.19231 7.91118C4.54379 7.04314 5.04171 7.11962 6.41048 7.83804C8.02393 6.78259 9.05197 4.90494 10.6227 3.97726C12.1252 4.8129 14.7659 8.96492 16.8681 8.23446C19.1392 7.25833 20.1206 4.0419 22.4434 3.14942C23.5424 2.72718 26.5458 5.7587 27.1208 5.66529C29.8315 5.22503 31.1379 0.533609 33.7366 0.0332728Z" fill="var(--fill-0, #41A949)"/>
<path id="Rectangle 1036" d="M35 2H35.5H36V15H35V2Z" fill="var(--fill-0, #C7E3C3)"/>
</g>
</svg>
