<svg preserveAspectRatio="none" width="100%" height="100%" overflow="visible" style="display: block;" viewBox="0 0 15.7502 15.75" fill="none" xmlns="http://www.w3.org/2000/svg">
<g id="Group">
<path id="Vector" d="M8.25019 3H6.75019C6.04294 3 5.68969 3 5.46994 3.21975C5.25019 3.4395 5.25019 3.79275 5.25019 4.5V6C5.25019 6.70725 5.25019 7.0605 5.46994 7.28025C5.68969 7.5 6.04294 7.5 6.75019 7.5H8.25019C8.95744 7.5 9.31069 7.5 9.53044 7.28025C9.75019 7.0605 9.75019 6.70725 9.75019 6V4.5C9.75019 3.79275 9.75019 3.4395 9.53044 3.21975C9.31069 3 8.95744 3 8.25019 3Z" stroke="var(--stroke-0, #578A3E)" stroke-width="1.5" stroke-linejoin="round"/>
<path id="Vector_2" d="M4.50019 15H10.5002M8.62519 7.5H6.37519V15H8.62519V7.5Z" stroke="var(--stroke-0, #578A3E)" stroke-width="1.5" stroke-linecap="round" stroke-linejoin="round"/>
<path id="Vector_3" d="M9.75019 4.125H12.7502C13.3469 4.125 13.9192 4.36206 14.3412 4.78401C14.7631 5.20597 15.0002 5.77827 15.0002 6.375V8.25H12.7502V6.375H9.75019V4.125Z" stroke="var(--stroke-0, #578A3E)" stroke-width="1.5" stroke-linejoin="round"/>
<path id="Vector_4" d="M9.75019 0.750003H5.70019C4.75369 0.750003 4.28044 0.750003 3.90769 0.992253C3.53494 1.2345 3.34294 1.66725 2.95819 2.53125L0.750187 7.5" stroke="var(--stroke-0, #578A3E)" stroke-width="1.5" stroke-linecap="round" stroke-linejoin="round"/>
<path id="Vector_5" d="M13.8752 10.5L14.2937 10.125C14.2409 10.0663 14.1764 10.0193 14.1043 9.98713C14.0322 9.95497 13.9541 9.93835 13.8752 9.93835C13.7962 9.93835 13.7182 9.95497 13.6461 9.98713C13.574 10.0193 13.5094 10.0663 13.4567 10.125L13.8752 10.5ZM14.4377 12.375C14.4377 12.5242 14.3784 12.6673 14.2729 12.7728C14.1674 12.8782 14.0244 12.9375 13.8752 12.9375V14.0625C14.3227 14.0625 14.752 13.8847 15.0684 13.5682C15.3849 13.2518 15.5627 12.8226 15.5627 12.375H14.4377ZM13.8752 12.9375C13.726 12.9375 13.5829 12.8782 13.4774 12.7728C13.372 12.6673 13.3127 12.5242 13.3127 12.375H12.1877C12.1877 12.8226 12.3655 13.2518 12.6819 13.5682C12.9984 13.8847 13.4276 14.0625 13.8752 14.0625V12.9375ZM13.3127 12.375C13.3127 12.3773 13.3127 12.3518 13.3329 12.2918C13.3514 12.2338 13.3824 12.1623 13.4259 12.0773C13.5137 11.907 13.6367 11.7173 13.7694 11.5328C13.9309 11.3095 14.1026 11.0938 14.2839 10.8863L14.2914 10.8773L14.2937 10.8758L13.8752 10.5L13.4567 10.125H13.4552L13.4514 10.1288L13.4409 10.1415C13.3819 10.2091 13.3236 10.2773 13.2662 10.3463C13.1552 10.4798 13.0067 10.6665 12.8559 10.8758C12.7074 11.082 12.5484 11.3228 12.4262 11.562C12.3122 11.7825 12.1877 12.0788 12.1877 12.375H13.3127ZM13.8752 10.5L13.4567 10.875L13.4582 10.8773L13.4657 10.8863C13.5176 10.9448 13.5684 11.0043 13.6179 11.0648C13.7177 11.1848 13.8504 11.3505 13.9809 11.5328C14.1137 11.7173 14.2359 11.907 14.3244 12.0773C14.3679 12.1623 14.3989 12.2338 14.4174 12.2918C14.4369 12.3518 14.4377 12.3773 14.4377 12.375H15.5627C15.5627 12.0788 15.4382 11.784 15.3249 11.5628C15.1981 11.3237 15.0543 11.0941 14.8944 10.8758C14.7113 10.622 14.5161 10.3772 14.3094 10.1423L14.2982 10.1295L14.2952 10.125L13.8752 10.5Z" fill="var(--fill-0, #578A3E)"/>
<path id="Vector_6" d="M7.50019 0.750003V3" stroke="var(--stroke-0, #578A3E)" stroke-width="1.5" stroke-linecap="round" stroke-linejoin="round"/>
</g>
</svg>
