<svg preserveAspectRatio="none" width="100%" height="100%" overflow="visible" style="display: block;" viewBox="0 0 15 8.25" fill="none" xmlns="http://www.w3.org/2000/svg">
<path id="Vector" d="M0 8.25V6.75C0.475 6.75 0.82825 6.625 1.05975 6.375C1.29125 6.125 1.7755 6 2.5125 6C3.2495 6 3.734 6.125 3.966 6.375C4.198 6.625 4.5385 6.75 4.9875 6.75C5.4625 6.75 5.81575 6.625 6.04725 6.375C6.27875 6.125 6.763 6 7.5 6C8.2125 6 8.697 6.125 8.9535 6.375C9.21 6.625 9.563 6.75 10.0125 6.75C10.4875 6.75 10.8345 6.625 11.0535 6.375C11.2725 6.125 11.7505 6 12.4875 6C13.2245 6 13.709 6.125 13.941 6.375C14.173 6.625 14.526 6.75 15 6.75V8.25C14.2875 8.25 13.8032 8.125 13.5472 7.875C13.2912 7.625 12.938 7.5 12.4875 7.5C12.037 7.5 11.6965 7.625 11.466 7.875C11.2355 8.125 10.751 8.25 10.0125 8.25C9.3 8.25 8.81575 8.125 8.55975 7.875C8.30375 7.625 7.9505 7.5 7.5 7.5C7.025 7.5 6.672 7.625 6.441 7.875C6.21 8.125 5.7255 8.25 4.9875 8.25C4.2495 8.25 3.7715 8.125 3.5535 7.875C3.3355 7.625 2.9885 7.5 2.5125 7.5C2.0365 7.5 1.6835 7.625 1.4535 7.875C1.2235 8.125 0.739 8.25 0 8.25ZM0 5.25V3.75C0.475 3.75 0.82825 3.625 1.05975 3.375C1.29125 3.125 1.7755 3 2.5125 3C3.225 3 3.70325 3.125 3.94725 3.375C4.19125 3.625 4.538 3.75 4.9875 3.75C5.4625 3.75 5.8155 3.625 6.0465 3.375C6.2775 3.125 6.762 3 7.5 3C8.2125 3 8.69375 3.125 8.94375 3.375C9.19375 3.625 9.5375 3.75 9.975 3.75C10.45 3.75 10.803 3.625 11.034 3.375C11.265 3.125 11.7495 3 12.4875 3C13.2 3 13.6845 3.125 13.941 3.375C14.1975 3.625 14.5505 3.75 15 3.75V5.25C14.2625 5.25 13.7718 5.125 13.5278 4.875C13.2838 4.625 12.937 4.5 12.4875 4.5C12.038 4.5 11.6975 4.625 11.466 4.875C11.2345 5.125 10.75 5.25 10.0125 5.25C9.3 5.25 8.81575 5.125 8.55975 4.875C8.30375 4.625 7.9505 4.5 7.5 4.5C7.025 4.5 6.678 4.625 6.459 4.875C6.24 5.125 5.762 5.25 5.025 5.25C4.288 5.25 3.7975 5.125 3.5535 4.875C3.3095 4.625 2.9625 4.5 2.5125 4.5C2.0625 4.5 1.7095 4.625 1.4535 4.875C1.1975 5.125 0.713 5.25 0 5.25ZM0 2.25V0.75C0.475 0.75 0.82825 0.625 1.05975 0.375C1.29125 0.125 1.7755 0 2.5125 0C3.225 0 3.70325 0.125 3.94725 0.375C4.19125 0.625 4.538 0.75 4.9875 0.75C5.4625 0.75 5.8155 0.625 6.0465 0.375C6.2775 0.125 6.762 0 7.5 0C8.2125 0 8.69375 0.125 8.94375 0.375C9.19375 0.625 9.5375 0.75 9.975 0.75C10.45 0.75 10.803 0.625 11.034 0.375C11.265 0.125 11.7495 0 12.4875 0C13.2 0 13.6845 0.125 13.941 0.375C14.1975 0.625 14.5505 0.75 15 0.75V2.25C14.2625 2.25 13.7718 2.125 13.5278 1.875C13.2838 1.625 12.937 1.5 12.4875 1.5C12.038 1.5 11.6975 1.625 11.466 1.875C11.2345 2.125 10.75 2.25 10.0125 2.25C9.3 2.25 8.81575 2.125 8.55975 1.875C8.30375 1.625 7.9505 1.5 7.5 1.5C7.025 1.5 6.678 1.625 6.459 1.875C6.24 2.125 5.762 2.25 5.025 2.25C4.288 2.25 3.7975 2.125 3.5535 1.875C3.3095 1.625 2.9625 1.5 2.5125 1.5C2.0625 1.5 1.7095 1.625 1.4535 1.875C1.1975 2.125 0.713 2.25 0 2.25Z" fill="var(--fill-0, #0D99FF)"/>
</svg>
