<svg preserveAspectRatio="none" width="100%" height="100%" overflow="visible" style="display: block;" viewBox="0 0 35.049 34.2796" fill="none" xmlns="http://www.w3.org/2000/svg">
<g id="Group 1">
<path id="Vector" d="M11.9701 13.2254C13.5193 8.11976 17.3234 4.58916 22.9358 6.29807C24.9479 6.92029 26.6297 8.31777 27.6105 10.1821C29.3573 13.4847 28.8004 19.806 24.7829 21.0838C26.2153 21.2613 27.1791 22.432 27.7721 22.3317L28.27 21.7841C29.5279 21.7697 30.9378 23.1663 31.4051 24.3017C31.3632 25.1587 31.114 25.3027 30.3712 25.8059C30.3123 25.9318 30.5033 28.1402 30.5502 28.4747C30.915 31.0848 29.0081 32.7928 26.858 34.0928C22.7349 34.328 18.2035 34.2026 14.0616 34.2161C11.4238 34.2249 4.39792 34.6683 2.52829 33.0804C-1.69881 29.4899 -0.601178 21.7058 5.63931 20.9376C6.6887 18.3644 7.20212 17.7697 9.05467 15.6172L9.78928 14.9104C10.5646 14.5962 11.4397 13.8894 11.9701 13.2254Z" fill="url(#paint0_linear_103_172)"/>
<path id="Vector_2" d="M12 13.3628C13.5493 8.25715 17.3533 4.72656 22.9658 6.43546C24.9779 7.05769 26.6597 8.45516 27.6404 10.3195C29.3872 13.6221 28.8303 19.9434 24.8128 21.2212C24.4533 21.199 23.3916 21.1616 23.2623 20.9373C20.0402 15.3489 19.7902 12.6295 12 13.3628Z" fill="var(--fill-0, #FCBE3C)"/>
<path id="Vector_3" d="M28 22.5477L28.4979 22.0001C29.7558 21.9857 31.1657 23.3823 31.633 24.5176C31.5911 25.3747 31.3419 25.5187 30.5991 26.0219C29.8611 24.9294 28.8394 23.5601 28 22.5477Z" fill="var(--fill-0, #FCBE3C)"/>
<path id="Vector_4" d="M10.2203 3.63089C11.4474 3.79037 12.973 5.69793 13.3801 6.8565C13.168 7.60076 13.1426 7.43525 12.3877 7.97052L11.9724 7.94104C10.5512 6.93076 10.0763 6.75104 9.42047 5.13404C9.51837 4.2628 9.59713 4.40269 10.2203 3.63089Z" fill="var(--fill-0, #FCBE3C)"/>
<path id="Vector_5" d="M29.9772 3.63103C30.4336 3.90566 31.1499 4.70136 31.5532 5.11976C30.5651 6.17309 29.4113 7.25331 28.3662 8.26639C28.2279 8.18288 27.215 7.18917 27.0298 7.01075C27.8575 5.76717 28.8865 4.6454 29.9772 3.63103Z" fill="var(--fill-0, #FCBE3C)"/>
<path id="Vector_6" d="M9.05473 16.4064C7.73742 16.477 5.96255 16.8667 5.48364 15.3397C5.90973 13.8822 8.10731 13.4418 9.29701 14.2513C9.78438 14.5829 9.71596 15.1376 9.78933 15.6995L9.05473 16.4064Z" fill="var(--fill-0, #FCBE3C)"/>
<path id="Vector_7" d="M30.7467 14.1273C32.3521 14.1813 33.8078 13.6824 34.9777 14.6514C35.1229 15.4871 35.0519 15.3117 34.7126 16.1801C33.5291 16.2165 31.8004 16.5701 30.899 15.9167C30.518 15.3429 30.6641 14.8164 30.7467 14.1273Z" fill="var(--fill-0, #FCBE3C)"/>
<path id="Vector_8" d="M19.3598 0.00576636C19.952 0.00275317 20.3746 -0.0562197 20.8669 0.281688C21.6904 1.5483 21.2998 3.2443 21.1679 4.80384C20.2022 4.82902 20.1416 4.93061 19.5522 4.41298C19.0736 3.12377 19.3103 1.45037 19.3598 0.00576636Z" fill="var(--fill-0, #FCBE3C)"/>
</g>
<defs>
<linearGradient id="paint0_linear_103_172" x1="15.7026" y1="6.99837" x2="15.7026" y2="35.4153" gradientUnits="userSpaceOnUse">
<stop stop-color="#E0E0DC"/>
<stop offset="1" stop-color="#F3F3F3"/>
</linearGradient>
</defs>
</svg>
