<svg preserveAspectRatio="none" width="100%" height="100%" overflow="visible" style="display: block;" viewBox="0 0 18 18" fill="none" xmlns="http://www.w3.org/2000/svg">
<g id="fxemoji:cancellationx">
<path id="Vector" d="M11.4362 9L16.1524 4.28386C16.8251 3.61111 16.8251 2.52039 16.1524 1.84764C15.4796 1.17489 14.3889 1.17489 13.7161 1.84764L9 6.56378L4.28386 1.84764C3.61111 1.17489 2.52039 1.17489 1.84764 1.84764C1.17489 2.52039 1.17489 3.61111 1.84764 4.28386L6.56378 9L1.84764 13.7161C1.17489 14.3889 1.17489 15.4796 1.84764 16.1524C2.18401 16.4887 2.62487 16.6569 3.06573 16.6569C3.50659 16.6569 3.94748 16.4887 4.28382 16.1524L9 11.4362L13.7161 16.1524C14.0525 16.4887 14.4934 16.6569 14.9342 16.6569C15.3751 16.6569 15.816 16.4887 16.1523 16.1524C16.8251 15.4796 16.8251 14.3889 16.1523 13.7161L11.4362 9Z" fill="var(--fill-0, #4C8644)"/>
</g>
</svg>
