<svg preserveAspectRatio="none" width="100%" height="100%" overflow="visible" style="display: block;" viewBox="0 0 18 18" fill="none" xmlns="http://www.w3.org/2000/svg">
<g id="eva:arrow-up-fill">
<path id="Vector" d="M12.1575 12H5.8425C5.59319 12.0004 5.34888 11.9301 5.13783 11.7974C4.92679 11.6647 4.75766 11.4749 4.65 11.25C4.52398 10.9832 4.47544 10.6864 4.50991 10.3933C4.54439 10.1002 4.6605 9.82277 4.845 9.5925L8.0025 5.7675C8.12641 5.62453 8.27961 5.50986 8.45171 5.43128C8.62382 5.35269 8.8108 5.31202 9 5.31202C9.1892 5.31202 9.37618 5.35269 9.54829 5.43128C9.72039 5.50986 9.87359 5.62453 9.9975 5.7675L13.155 9.5925C13.3395 9.82277 13.4556 10.1002 13.4901 10.3933C13.5246 10.6864 13.476 10.9832 13.35 11.25C13.2423 11.4749 13.0732 11.6647 12.8622 11.7974C12.6511 11.9301 12.4068 12.0004 12.1575 12Z" fill="var(--fill-0, #28502D)"/>
</g>
</svg>
